<svg xmlns="http://www.w3.org/2000/svg" version="1.1" xmlns:xlink="http://www.w3.org/1999/xlink" xmlns:svgjs="http://svgjs.dev/svgjs" width="1920" height="1080" preserveAspectRatio="none" viewBox="0 0 1920 1080"><g mask="url(&quot;#SvgjsMask2351&quot;)" fill="none"><rect width="1920" height="1080" x="0" y="0" fill="url(&quot;#SvgjsLinearGradient2352&quot;)"></rect><path d="M-35.13 539.38 a248.72 248.72 0 1 0 497.44 0 a248.72 248.72 0 1 0 -497.44 0z" fill="rgba(36, 42, 82, 0.4)" class="triangle-float2"></path><path d="M1531.103,961.915C1570.333,961.357,1608.591,946.117,1629.334,912.815C1651.287,877.569,1656.063,831.873,1634.021,796.682C1613.033,763.173,1570.549,753.274,1531.103,755.985C1496.529,758.361,1468.887,780.214,1450.078,809.322C1429.012,841.922,1409.709,881.398,1427.912,915.679C1446.858,951.359,1490.709,962.489,1531.103,961.915" fill="rgba(36, 42, 82, 0.4)" class="triangle-float2"></path><path d="M81.29 414.67 a207.43 207.43 0 1 0 414.86 0 a207.43 207.43 0 1 0 -414.86 0z" fill="rgba(36, 42, 82, 0.4)" class="triangle-float2"></path><path d="M1438.561,663.122C1536.217,657.278,1621.159,606.58,1674.911,524.839C1735.667,432.448,1783.523,316.886,1729.802,220.234C1675.088,121.797,1551.119,95.862,1438.561,99.614C1333.467,103.117,1235.613,149.906,1179.114,238.59C1117.807,334.82,1088.052,459.039,1147.551,556.397C1205.298,650.888,1328.02,669.737,1438.561,663.122" fill="rgba(36, 42, 82, 0.4)" class="triangle-float3"></path><path d="M1624.8 286.81 a288.17 288.17 0 1 0 576.34 0 a288.17 288.17 0 1 0 -576.34 0z" fill="rgba(36, 42, 82, 0.4)" class="triangle-float2"></path><path d="M379.122,1231.709C441.142,1235.031,508.7,1225.149,542.853,1173.273C579.851,1117.076,578.14,1041.431,541.579,984.948C507.637,932.511,441.451,916.217,379.122,920.323C324.222,923.94,277.324,956.439,249.942,1004.16C222.701,1051.636,216.171,1109.621,243.194,1157.221C270.533,1205.378,323.825,1228.747,379.122,1231.709" fill="rgba(36, 42, 82, 0.4)" class="triangle-float3"></path><path d="M519.884,366.006C547.072,363.726,566.04,341.194,578.305,316.823C589.177,295.221,589.401,270.822,578.702,249.135C566.424,224.249,547.583,200.083,519.884,198.406C489.834,196.586,462.821,215.393,447.281,241.177C431.182,267.889,425.922,301.33,441.602,328.29C457.21,355.125,488.949,368.601,519.884,366.006" fill="rgba(36, 42, 82, 0.4)" class="triangle-float2"></path><path d="M1407.709,293.62C1449.426,296.35,1491.39,275.308,1510.818,238.291C1529.201,203.266,1514.361,162.858,1494.199,128.826C1474.543,95.648,1446.201,66.58,1407.709,64.249C1365.223,61.676,1320.197,79.16,1300.946,117.122C1282.881,152.745,1304.922,191.993,1325.595,226.169C1345.245,258.653,1369.825,291.141,1407.709,293.62" fill="rgba(36, 42, 82, 0.4)" class="triangle-float1"></path><path d="M1652.994,663.394C1754.468,667.382,1861.967,638.116,1914.051,550.938C1967.201,461.976,1947.627,349.712,1893.022,261.636C1841.474,178.492,1750.798,131.986,1652.994,129.862C1550.963,127.646,1444.528,162.019,1394.204,250.804C1344.413,338.647,1371.559,446.188,1425.212,531.727C1475.158,611.355,1559.071,659.703,1652.994,663.394" fill="rgba(36, 42, 82, 0.4)" class="triangle-float2"></path></g><defs><mask id="SvgjsMask2351"><rect width="1920" height="1080" fill="#ffffff"></rect></mask><linearGradient x1="10.94%" y1="-19.44%" x2="89.06%" y2="119.44%" gradientUnits="userSpaceOnUse" id="SvgjsLinearGradient2352"><stop stop-color="rgba(44, 50, 86, 1)" offset="0"></stop><stop stop-color="rgba(12, 8, 37, 1)" offset="0.52"></stop></linearGradient><style>
                @keyframes float1 {
                    0%{transform: translate(0, 0)}
                    50%{transform: translate(-10px, 0)}
                    100%{transform: translate(0, 0)}
                }

                .triangle-float1 {
                    animation: float1 5s infinite;
                }

                @keyframes float2 {
                    0%{transform: translate(0, 0)}
                    50%{transform: translate(-5px, -5px)}
                    100%{transform: translate(0, 0)}
                }

                .triangle-float2 {
                    animation: float2 4s infinite;
                }

                @keyframes float3 {
                    0%{transform: translate(0, 0)}
                    50%{transform: translate(0, -10px)}
                    100%{transform: translate(0, 0)}
                }

                .triangle-float3 {
                    animation: float3 6s infinite;
                }
            </style></defs></svg>