<svg id="visual" viewBox="0 0 900 600" width="900" height="600" xmlns="http://www.w3.org/2000/svg" xmlns:xlink="http://www.w3.org/1999/xlink" version="1.1"><rect x="0" y="0" width="900" height="600" fill="#e2e8f2"></rect><path d="M0 301L21.5 298.7C43 296.3 86 291.7 128.8 314.2C171.7 336.7 214.3 386.3 257.2 408.2C300 430 343 424 385.8 401.3C428.7 378.7 471.3 339.3 514.2 347C557 354.7 600 409.3 642.8 434.2C685.7 459 728.3 454 771.2 444.2C814 434.3 857 419.7 878.5 412.3L900 405L900 601L878.5 601C857 601 814 601 771.2 601C728.3 601 685.7 601 642.8 601C600 601 557 601 514.2 601C471.3 601 428.7 601 385.8 601C343 601 300 601 257.2 601C214.3 601 171.7 601 128.8 601C86 601 43 601 21.5 601L0 601Z" fill="#cbdeff"></path><path d="M0 378L21.5 394.8C43 411.7 86 445.3 128.8 456.5C171.7 467.7 214.3 456.3 257.2 454.3C300 452.3 343 459.7 385.8 464.8C428.7 470 471.3 473 514.2 456C557 439 600 402 642.8 391.7C685.7 381.3 728.3 397.7 771.2 412C814 426.3 857 438.7 878.5 444.8L900 451L900 601L878.5 601C857 601 814 601 771.2 601C728.3 601 685.7 601 642.8 601C600 601 557 601 514.2 601C471.3 601 428.7 601 385.8 601C343 601 300 601 257.2 601C214.3 601 171.7 601 128.8 601C86 601 43 601 21.5 601L0 601Z" fill="#b4cfff"></path><path d="M0 483L21.5 481C43 479 86 475 128.8 485C171.7 495 214.3 519 257.2 520.5C300 522 343 501 385.8 501.3C428.7 501.7 471.3 523.3 514.2 536.8C557 550.3 600 555.7 642.8 556C685.7 556.3 728.3 551.7 771.2 543.5C814 535.3 857 523.7 878.5 517.8L900 512L900 601L878.5 601C857 601 814 601 771.2 601C728.3 601 685.7 601 642.8 601C600 601 557 601 514.2 601C471.3 601 428.7 601 385.8 601C343 601 300 601 257.2 601C214.3 601 171.7 601 128.8 601C86 601 43 601 21.5 601L0 601Z" fill="#9cc0ff"></path></svg>